<svg width="256.48mm" height="170.16mm" viewBox="0 0 256.48 170.16" xmlns="http://www.w3.org/2000/svg" version="1.1" preserveAspectRatio="xMidYMid meet"><g id="svgGroup" stroke-linecap="round" fill-rule="evenodd" font-size="9pt" stroke="#000" stroke-width="0.25mm" fill="none" style="stroke:#000;stroke-width:0.25mm;fill:none"><path d="M 10.972 170.113 L 10.972 167.71 L 29.188 167.71 L 29.188 170.113 L 29.234 170.16 L 40.113 170.16 L 40.16 170.113 L 40.16 156.734 L 40.113 156.688 L 37.71 156.688 L 37.71 138.473 L 40.113 138.473 L 40.16 138.426 L 40.16 125.047 L 40.113 125 L 0.047 125 L 0 125.047 L 0 138.426 L 0.047 138.473 L 2.45 138.473 L 2.45 156.688 L 0.047 156.688 L 0 156.734 L 0 170.113 L 0.047 170.16 L 10.926 170.16 L 10.972 170.113 Z" id="front_outsideCutPath" stroke="#FF0000" stroke-width="0.1" style="stroke:#FF0000;stroke-width:0.1" vector-effect="non-scaling-stroke"/><path d="M 25.933 150.613 L 25.282 150.613 L 25.282 147.833 A 1.84 1.84 0 0 0 25.261 147.544 Q 25.237 147.392 25.185 147.271 A 0.774 0.774 0 0 0 25.043 147.049 A 0.734 0.734 0 0 0 24.742 146.856 Q 24.553 146.79 24.294 146.79 Q 23.619 146.79 23.306 147.154 A 1.064 1.064 0 0 0 23.121 147.478 Q 23.009 147.775 22.994 148.217 A 4.17 4.17 0 0 0 22.992 148.358 L 22.992 150.613 L 22.341 150.613 L 22.341 146.315 L 22.87 146.315 L 22.976 146.903 L 23.008 146.903 Q 23.208 146.586 23.569 146.411 A 1.763 1.763 0 0 1 24.196 146.244 A 2.132 2.132 0 0 1 24.372 146.237 Q 24.887 146.237 25.233 146.401 A 1.17 1.17 0 0 1 25.541 146.611 A 1.128 1.128 0 0 1 25.816 147.043 Q 25.882 147.221 25.911 147.441 A 2.841 2.841 0 0 1 25.933 147.809 L 25.933 150.613 Z M 13.427 146.315 L 13.427 146.821 L 12.332 146.821 L 12.332 150.613 L 11.681 150.613 L 11.681 146.821 L 10.913 146.821 L 10.913 146.527 L 11.681 146.292 L 11.681 146.052 A 2.639 2.639 0 0 1 11.743 145.454 Q 11.973 144.468 13.066 144.468 Q 13.407 144.468 13.866 144.605 L 13.697 145.127 Q 13.43 145.04 13.218 145.015 A 1.4 1.4 0 0 0 13.054 145.005 A 0.878 0.878 0 0 0 12.842 145.029 A 0.564 0.564 0 0 0 12.509 145.25 Q 12.332 145.495 12.332 146.037 L 12.332 146.315 L 13.427 146.315 Z M 29.247 150.076 L 29.247 150.574 A 0.64 0.64 0 0 1 29.171 150.604 Q 29.077 150.636 28.936 150.659 A 2.822 2.822 0 0 1 28.752 150.683 Q 28.652 150.692 28.565 150.692 A 1.7 1.7 0 0 1 28.064 150.624 Q 27.513 150.455 27.369 149.856 A 2.046 2.046 0 0 1 27.318 149.378 L 27.318 146.821 L 26.702 146.821 L 26.702 146.507 L 27.318 146.237 L 27.592 145.319 L 27.969 145.319 L 27.969 146.315 L 29.216 146.315 L 29.216 146.821 L 27.969 146.821 L 27.969 149.351 A 1.311 1.311 0 0 0 27.988 149.581 Q 28.028 149.805 28.153 149.947 Q 28.338 150.155 28.659 150.155 A 2.138 2.138 0 0 0 28.972 150.132 A 1.97 1.97 0 0 0 28.992 150.129 A 3.522 3.522 0 0 0 29.086 150.113 Q 29.183 150.095 29.247 150.076 Z M 16.686 146.284 L 16.595 146.888 A 2.869 2.869 0 0 0 16.389 146.85 Q 16.286 146.835 16.195 146.831 A 1.527 1.527 0 0 0 16.125 146.829 A 1.128 1.128 0 0 0 15.291 147.189 A 1.543 1.543 0 0 0 15.233 147.252 A 1.487 1.487 0 0 0 14.874 148.087 A 1.976 1.976 0 0 0 14.862 148.307 L 14.862 150.613 L 14.211 150.613 L 14.211 146.315 L 14.748 146.315 L 14.823 147.111 L 14.854 147.111 A 2.199 2.199 0 0 1 15.1 146.76 A 1.679 1.679 0 0 1 15.431 146.464 A 1.298 1.298 0 0 1 16.172 146.237 Q 16.458 146.237 16.686 146.284 Z M 21.14 149.115 A 3.363 3.363 0 0 0 21.2 148.46 A 3.821 3.821 0 0 0 21.198 148.357 Q 21.189 147.999 21.111 147.695 A 2.027 2.027 0 0 0 20.668 146.837 Q 20.137 146.237 19.235 146.237 A 2.529 2.529 0 0 0 18.781 146.276 A 1.722 1.722 0 0 0 17.776 146.823 A 1.799 1.799 0 0 0 17.555 147.129 Q 17.385 147.426 17.31 147.807 A 3.38 3.38 0 0 0 17.25 148.46 A 3.257 3.257 0 0 0 17.291 148.988 A 2.408 2.408 0 0 0 17.494 149.645 A 2.14 2.14 0 0 0 17.541 149.738 A 1.763 1.763 0 0 0 18.184 150.421 A 1.813 1.813 0 0 0 18.6 150.606 A 2.091 2.091 0 0 0 19.207 150.692 A 2.528 2.528 0 0 0 19.649 150.655 A 1.736 1.736 0 0 0 20.67 150.102 Q 21.022 149.71 21.14 149.115 Z M 17.925 148.46 A 3.297 3.297 0 0 0 17.956 148.931 Q 18.027 149.417 18.254 149.715 A 1.067 1.067 0 0 0 18.949 150.125 A 1.617 1.617 0 0 0 19.223 150.147 Q 19.862 150.147 20.194 149.717 Q 20.525 149.288 20.525 148.46 A 3.248 3.248 0 0 0 20.494 147.997 Q 20.424 147.511 20.194 147.215 Q 19.862 146.79 19.215 146.79 A 1.549 1.549 0 0 0 18.829 146.835 A 1.037 1.037 0 0 0 18.25 147.209 A 1.346 1.346 0 0 0 18.041 147.614 Q 17.979 147.799 17.95 148.027 A 3.44 3.44 0 0 0 17.925 148.46 Z" id="front_labelLayer" stroke="#000000" fill="#000000" style="stroke:#000000;fill:#000000" vector-effect="non-scaling-stroke"/><path d="M 64.008 170.113 L 64.008 167.71 L 82.223 167.71 L 82.223 170.113 L 82.269 170.16 L 100.711 170.16 L 100.758 170.113 L 100.758 167.71 L 118.973 167.71 L 118.973 170.113 L 119.019 170.16 L 137.461 170.16 L 137.508 170.113 L 137.508 167.71 L 155.723 167.71 L 155.723 170.113 L 155.769 170.16 L 174.211 170.16 L 174.258 170.113 L 174.258 167.71 L 192.473 167.71 L 192.473 170.113 L 192.519 170.16 L 210.823 170.16 L 210.87 170.113 L 210.87 156.848 L 213.273 156.848 L 213.32 156.801 L 213.32 138.359 L 213.273 138.313 L 210.87 138.313 L 210.87 125.047 L 210.823 125 L 45.657 125 L 45.61 125.047 L 45.61 138.313 L 43.207 138.313 L 43.16 138.359 L 43.16 156.801 L 43.207 156.848 L 45.61 156.848 L 45.61 170.113 L 45.657 170.16 L 63.961 170.16 L 64.008 170.113 Z" id="left_outsideCutPath" stroke="#FF0000" stroke-width="0.1" style="stroke:#FF0000;stroke-width:0.1" vector-effect="non-scaling-stroke"/><path d="M 131.453 146.158 L 131.453 146.727 L 130.222 146.727 L 130.222 150.991 L 129.49 150.991 L 129.49 146.727 L 128.626 146.727 L 128.626 146.396 L 129.49 146.131 L 129.49 145.862 A 2.967 2.967 0 0 1 129.56 145.19 Q 129.774 144.273 130.65 144.114 A 2.225 2.225 0 0 1 131.047 144.08 A 2.357 2.357 0 0 1 131.381 144.106 Q 131.543 144.129 131.724 144.174 A 4.739 4.739 0 0 1 131.947 144.235 L 131.757 144.821 A 3.555 3.555 0 0 0 131.481 144.744 Q 131.231 144.685 131.034 144.685 A 0.987 0.987 0 0 0 130.796 144.712 A 0.634 0.634 0 0 0 130.421 144.96 Q 130.222 145.236 130.222 145.845 L 130.222 146.158 L 131.453 146.158 Z M 128.026 148.244 L 128.026 148.707 L 124.696 148.707 Q 124.712 149.288 124.907 149.678 A 1.375 1.375 0 0 0 125.126 149.999 Q 125.534 150.44 126.275 150.44 A 3.867 3.867 0 0 0 127.723 150.153 A 4.431 4.431 0 0 0 127.819 150.114 L 127.819 150.766 A 4.395 4.395 0 0 1 127.418 150.918 A 3.361 3.361 0 0 1 127.085 151.007 A 3.073 3.073 0 0 1 126.78 151.054 Q 126.63 151.07 126.46 151.076 A 5.964 5.964 0 0 1 126.249 151.079 A 2.845 2.845 0 0 1 125.537 150.995 A 2.014 2.014 0 0 1 124.558 150.427 A 2.155 2.155 0 0 1 124.042 149.48 Q 123.953 149.145 123.94 148.746 A 4.182 4.182 0 0 1 123.938 148.614 A 3.844 3.844 0 0 1 124.009 147.852 Q 124.103 147.388 124.32 147.028 A 2.168 2.168 0 0 1 124.513 146.757 A 1.876 1.876 0 0 1 125.881 146.075 A 2.588 2.588 0 0 1 126.059 146.069 A 2.23 2.23 0 0 1 126.687 146.153 A 1.697 1.697 0 0 1 127.497 146.667 A 2.047 2.047 0 0 1 127.961 147.602 A 2.98 2.98 0 0 1 128.026 148.244 Z M 134.558 150.387 L 134.558 150.947 A 0.72 0.72 0 0 1 134.472 150.981 Q 134.381 151.011 134.251 151.034 A 2.74 2.74 0 0 1 134.207 151.042 A 3.173 3.173 0 0 1 134 151.069 Q 133.903 151.078 133.815 151.079 A 1.878 1.878 0 0 1 133.79 151.079 A 1.912 1.912 0 0 1 133.227 151.004 Q 132.607 150.812 132.445 150.14 A 2.301 2.301 0 0 1 132.388 149.602 L 132.388 146.727 L 131.695 146.727 L 131.695 146.374 L 132.388 146.069 L 132.696 145.037 L 133.12 145.037 L 133.12 146.158 L 134.522 146.158 L 134.522 146.727 L 133.12 146.727 L 133.12 149.571 Q 133.12 149.878 133.222 150.084 A 0.71 0.71 0 0 0 133.327 150.241 A 0.68 0.68 0 0 0 133.745 150.464 A 0.979 0.979 0 0 0 133.896 150.475 A 2.404 2.404 0 0 0 134.248 150.45 A 2.216 2.216 0 0 0 134.271 150.447 A 3.961 3.961 0 0 0 134.377 150.428 Q 134.478 150.41 134.548 150.39 A 1.103 1.103 0 0 0 134.558 150.387 Z M 122.655 144.129 L 122.655 150.991 L 121.922 150.991 L 121.922 144.129 L 122.655 144.129 Z M 124.714 148.111 L 127.241 148.111 A 2.495 2.495 0 0 0 127.211 147.71 Q 127.145 147.304 126.932 147.051 A 1.003 1.003 0 0 0 126.328 146.707 A 1.505 1.505 0 0 0 126.05 146.682 A 1.443 1.443 0 0 0 125.633 146.74 A 1.115 1.115 0 0 0 125.122 147.062 A 1.446 1.446 0 0 0 124.834 147.547 Q 124.762 147.746 124.728 147.986 A 2.766 2.766 0 0 0 124.714 148.111 Z" id="left_labelLayer" stroke="#000000" fill="#000000" style="stroke:#000000;fill:#000000" vector-effect="non-scaling-stroke"/><path d="M 10.972 121.953 L 10.972 119.55 L 29.188 119.55 L 29.188 121.953 L 29.234 122 L 40.113 122 L 40.16 121.953 L 40.16 108.574 L 40.113 108.528 L 37.71 108.528 L 37.71 90.313 L 40.113 90.313 L 40.16 90.266 L 40.16 76.887 L 40.113 76.84 L 0.047 76.84 L 0 76.887 L 0 90.266 L 0.047 90.313 L 2.45 90.313 L 2.45 108.528 L 0.047 108.528 L 0 108.574 L 0 121.953 L 0.047 122 L 10.926 122 L 10.972 121.953 Z" id="back_outsideCutPath" stroke="#FF0000" stroke-width="0.1" style="stroke:#FF0000;stroke-width:0.1" vector-effect="non-scaling-stroke"/><path d="M 25.578 100.232 L 25.61 100.232 Q 25.778 99.993 26.124 99.604 L 27.512 98.134 L 28.285 98.134 L 26.543 99.965 L 28.406 102.432 L 27.618 102.432 L 26.1 100.4 L 25.61 100.824 L 25.61 102.432 L 24.967 102.432 L 24.967 96.33 L 25.61 96.33 L 25.61 99.565 A 4.338 4.338 0 0 1 25.608 99.688 Q 25.602 99.894 25.578 100.232 Z M 12.405 101.879 L 12.358 101.879 L 12.221 102.432 L 11.754 102.432 L 11.754 96.33 L 12.405 96.33 L 12.405 97.812 A 13.573 13.573 0 0 1 12.398 98.271 Q 12.39 98.502 12.374 98.706 L 12.405 98.706 A 1.48 1.48 0 0 1 13.485 98.079 A 2.224 2.224 0 0 1 13.754 98.063 A 1.99 1.99 0 0 1 14.314 98.138 A 1.49 1.49 0 0 1 15.07 98.641 Q 15.445 99.105 15.52 99.876 A 4.179 4.179 0 0 1 15.538 100.279 A 3.817 3.817 0 0 1 15.488 100.921 Q 15.429 101.263 15.303 101.538 A 1.83 1.83 0 0 1 15.066 101.924 A 1.541 1.541 0 0 1 13.97 102.5 A 2.208 2.208 0 0 1 13.754 102.51 A 1.975 1.975 0 0 1 13.258 102.45 A 1.718 1.718 0 0 1 12.987 102.355 Q 12.64 102.201 12.405 101.879 Z M 19.802 102.432 L 19.319 102.432 L 19.19 101.82 L 19.158 101.82 A 2.699 2.699 0 0 1 18.94 102.065 Q 18.822 102.18 18.705 102.261 A 1.199 1.199 0 0 1 18.517 102.367 Q 18.254 102.485 17.882 102.506 A 2.93 2.93 0 0 1 17.719 102.51 A 1.998 1.998 0 0 1 17.312 102.472 Q 16.955 102.397 16.717 102.181 A 1.07 1.07 0 0 1 16.394 101.617 A 1.638 1.638 0 0 1 16.354 101.244 A 1.126 1.126 0 0 1 16.995 100.18 Q 17.472 99.927 18.304 99.884 A 6.36 6.36 0 0 1 18.437 99.879 L 19.166 99.855 L 19.166 99.589 Q 19.166 99.279 19.085 99.069 A 0.727 0.727 0 0 0 18.949 98.841 A 0.661 0.661 0 0 0 18.678 98.665 Q 18.5 98.6 18.252 98.6 A 2.12 2.12 0 0 0 17.765 98.661 Q 17.424 98.742 17.037 98.93 L 16.837 98.432 A 3.002 3.002 0 0 1 17.416 98.193 A 3.417 3.417 0 0 1 17.533 98.161 A 3.015 3.015 0 0 1 18.292 98.063 A 2.75 2.75 0 0 1 18.71 98.093 Q 19.17 98.164 19.431 98.404 Q 19.722 98.672 19.784 99.193 A 2.562 2.562 0 0 1 19.802 99.498 L 19.802 102.432 Z M 24.01 98.279 L 23.81 98.832 Q 23.594 98.745 23.339 98.689 A 2.689 2.689 0 0 0 23.134 98.651 Q 23.001 98.632 22.888 98.632 A 1.444 1.444 0 0 0 22.302 98.742 Q 21.578 99.061 21.578 100.302 Q 21.578 100.822 21.716 101.183 A 1.35 1.35 0 0 0 21.898 101.518 A 1.034 1.034 0 0 0 22.568 101.918 A 1.575 1.575 0 0 0 22.845 101.942 A 2.725 2.725 0 0 0 23.597 101.832 A 3.365 3.365 0 0 0 23.947 101.71 L 23.947 102.287 Q 23.576 102.479 23.041 102.506 A 3.57 3.57 0 0 1 22.861 102.51 A 2.433 2.433 0 0 1 22.269 102.443 A 1.65 1.65 0 0 1 21.415 101.936 A 1.883 1.883 0 0 1 21.024 101.217 Q 20.937 100.931 20.913 100.588 A 3.937 3.937 0 0 1 20.904 100.31 A 3.592 3.592 0 0 1 20.959 99.657 Q 21.027 99.293 21.176 99.005 A 1.795 1.795 0 0 1 21.423 98.643 A 1.686 1.686 0 0 1 22.346 98.113 A 2.556 2.556 0 0 1 22.904 98.055 A 2.938 2.938 0 0 1 23.523 98.122 A 3.25 3.25 0 0 1 23.704 98.166 Q 23.888 98.217 24.01 98.279 Z M 13.66 98.608 A 1.829 1.829 0 0 0 13.306 98.64 Q 13.104 98.68 12.95 98.77 A 0.866 0.866 0 0 0 12.699 98.991 Q 12.441 99.326 12.409 100.067 A 5.016 5.016 0 0 0 12.405 100.279 Q 12.405 101.048 12.623 101.446 A 0.982 0.982 0 0 0 12.707 101.575 Q 12.978 101.925 13.541 101.961 A 2.093 2.093 0 0 0 13.676 101.965 A 1.298 1.298 0 0 0 14.044 101.916 A 0.936 0.936 0 0 0 14.57 101.528 A 1.494 1.494 0 0 0 14.755 101.128 Q 14.864 100.77 14.864 100.271 Q 14.864 99.432 14.57 99.02 A 0.949 0.949 0 0 0 13.965 98.637 A 1.506 1.506 0 0 0 13.66 98.608 Z M 19.151 100.706 L 19.151 100.318 L 18.499 100.346 Q 17.851 100.368 17.505 100.521 A 1 1 0 0 0 17.38 100.587 A 0.695 0.695 0 0 0 17.049 101.091 A 1.028 1.028 0 0 0 17.037 101.251 Q 17.037 101.562 17.202 101.742 A 0.58 0.58 0 0 0 17.25 101.789 Q 17.464 101.973 17.848 101.973 A 1.792 1.792 0 0 0 18.236 101.934 Q 18.505 101.874 18.704 101.724 A 1.087 1.087 0 0 0 18.803 101.64 A 1.09 1.09 0 0 0 19.108 101.095 Q 19.15 100.92 19.151 100.713 A 2.082 2.082 0 0 0 19.151 100.706 Z" id="back_labelLayer" stroke="#000000" fill="#000000" style="stroke:#000000;fill:#000000" vector-effect="non-scaling-stroke"/><path d="M 64.008 121.953 L 64.008 119.55 L 82.223 119.55 L 82.223 121.953 L 82.269 122 L 100.711 122 L 100.758 121.953 L 100.758 119.55 L 118.973 119.55 L 118.973 121.953 L 119.019 122 L 137.461 122 L 137.508 121.953 L 137.508 119.55 L 155.723 119.55 L 155.723 121.953 L 155.769 122 L 174.211 122 L 174.258 121.953 L 174.258 119.55 L 192.473 119.55 L 192.473 121.953 L 192.519 122 L 210.823 122 L 210.87 121.953 L 210.87 108.688 L 213.273 108.688 L 213.32 108.641 L 213.32 90.199 L 213.273 90.153 L 210.87 90.153 L 210.87 76.887 L 210.823 76.84 L 45.657 76.84 L 45.61 76.887 L 45.61 90.153 L 43.207 90.153 L 43.16 90.199 L 43.16 108.641 L 43.207 108.688 L 45.61 108.688 L 45.61 121.953 L 45.657 122 L 63.961 122 L 64.008 121.953 Z" id="right_outsideCutPath" stroke="#FF0000" stroke-width="0.1" style="stroke:#FF0000;stroke-width:0.1" vector-effect="non-scaling-stroke"/><path d="M 133.856 101.766 L 133.124 101.766 L 133.124 98.639 A 2.069 2.069 0 0 0 133.101 98.315 Q 133.073 98.144 133.015 98.008 A 0.871 0.871 0 0 0 132.855 97.757 A 0.825 0.825 0 0 0 132.517 97.541 Q 132.304 97.466 132.013 97.466 A 2.215 2.215 0 0 0 131.599 97.502 Q 131.147 97.589 130.899 97.881 Q 130.579 98.26 130.551 99.081 A 4.725 4.725 0 0 0 130.549 99.239 L 130.549 101.766 L 129.817 101.766 L 129.817 94.904 L 130.549 94.904 L 130.549 96.981 Q 130.549 97.251 130.53 97.455 A 2.864 2.864 0 0 1 130.513 97.603 L 130.558 97.603 Q 130.774 97.255 131.173 97.054 A 1.879 1.879 0 0 1 131.79 96.871 A 2.376 2.376 0 0 1 132.083 96.853 A 2.97 2.97 0 0 1 132.582 96.892 Q 132.848 96.938 133.058 97.035 A 1.32 1.32 0 0 1 133.413 97.274 Q 133.757 97.602 133.834 98.228 A 3.166 3.166 0 0 1 133.856 98.613 L 133.856 101.766 Z M 127.153 96.933 L 128.824 96.933 L 128.824 97.396 L 127.929 97.502 A 1.19 1.19 0 0 1 128.032 97.655 Q 128.077 97.734 128.118 97.829 A 2.257 2.257 0 0 1 128.15 97.905 A 1.408 1.408 0 0 1 128.233 98.242 A 1.809 1.809 0 0 1 128.247 98.467 A 1.678 1.678 0 0 1 128.17 98.988 A 1.357 1.357 0 0 1 127.761 99.601 A 1.624 1.624 0 0 1 127.123 99.937 Q 126.881 100.005 126.594 100.02 A 3.18 3.18 0 0 1 126.43 100.024 Q 126.214 100.024 126.024 99.989 A 1.303 1.303 0 0 0 125.814 100.125 Q 125.556 100.332 125.556 100.611 A 0.379 0.379 0 0 0 125.576 100.735 Q 125.611 100.837 125.71 100.898 A 0.406 0.406 0 0 0 125.72 100.904 A 0.514 0.514 0 0 0 125.833 100.951 Q 125.998 100.999 126.28 100.999 L 127.135 100.999 A 2.997 2.997 0 0 1 127.59 101.031 Q 127.828 101.068 128.021 101.146 A 1.323 1.323 0 0 1 128.341 101.33 A 1.071 1.071 0 0 1 128.739 102.012 A 1.609 1.609 0 0 1 128.763 102.291 A 1.585 1.585 0 0 1 128.672 102.839 Q 128.526 103.239 128.144 103.498 A 1.74 1.74 0 0 1 128.119 103.515 Q 127.475 103.936 126.24 103.936 A 4.102 4.102 0 0 1 125.69 103.902 Q 125.131 103.826 124.778 103.583 A 1.167 1.167 0 0 1 124.402 103.175 Q 124.264 102.92 124.264 102.586 A 1.119 1.119 0 0 1 124.546 101.824 A 1.278 1.278 0 0 1 124.986 101.504 A 1.812 1.812 0 0 1 125.34 101.387 A 0.76 0.76 0 0 1 125.045 101.148 A 0.902 0.902 0 0 1 125.029 101.127 A 0.679 0.679 0 0 1 124.905 100.76 A 0.841 0.841 0 0 1 124.904 100.717 A 0.837 0.837 0 0 1 124.946 100.447 A 0.742 0.742 0 0 1 125.045 100.253 A 1.048 1.048 0 0 1 125.183 100.097 Q 125.257 100.028 125.351 99.961 A 2.3 2.3 0 0 1 125.49 99.87 A 1.283 1.283 0 0 1 124.933 99.423 A 1.591 1.591 0 0 1 124.879 99.345 A 1.513 1.513 0 0 1 124.647 98.616 A 1.847 1.847 0 0 1 124.644 98.498 A 2.115 2.115 0 0 1 124.699 97.998 A 1.392 1.392 0 0 1 125.12 97.274 A 1.555 1.555 0 0 1 125.717 96.945 Q 125.954 96.873 126.239 96.852 A 3.233 3.233 0 0 1 126.469 96.844 A 2.806 2.806 0 0 1 126.841 96.868 A 2.137 2.137 0 0 1 127.153 96.933 Z M 137.583 101.162 L 137.583 101.722 A 0.72 0.72 0 0 1 137.498 101.756 Q 137.406 101.786 137.276 101.809 A 2.74 2.74 0 0 1 137.232 101.817 A 3.173 3.173 0 0 1 137.025 101.844 Q 136.928 101.853 136.84 101.854 A 1.878 1.878 0 0 1 136.816 101.854 A 1.912 1.912 0 0 1 136.252 101.779 Q 135.633 101.587 135.471 100.915 A 2.301 2.301 0 0 1 135.413 100.377 L 135.413 97.502 L 134.721 97.502 L 134.721 97.149 L 135.413 96.844 L 135.722 95.812 L 136.145 95.812 L 136.145 96.933 L 137.548 96.933 L 137.548 97.502 L 136.145 97.502 L 136.145 100.346 Q 136.145 100.653 136.248 100.86 A 0.71 0.71 0 0 0 136.352 101.016 A 0.68 0.68 0 0 0 136.771 101.239 A 0.979 0.979 0 0 0 136.921 101.25 A 2.404 2.404 0 0 0 137.274 101.225 A 2.216 2.216 0 0 0 137.296 101.222 A 3.961 3.961 0 0 0 137.402 101.203 Q 137.503 101.185 137.573 101.165 A 1.103 1.103 0 0 0 137.583 101.162 Z M 121.68 96.897 L 121.578 97.577 A 3.226 3.226 0 0 0 121.346 97.534 Q 121.231 97.517 121.128 97.512 A 1.717 1.717 0 0 0 121.049 97.51 A 1.268 1.268 0 0 0 120.112 97.915 A 1.735 1.735 0 0 0 120.046 97.987 Q 119.629 98.463 119.629 99.173 L 119.629 101.766 L 118.897 101.766 L 118.897 96.933 L 119.501 96.933 L 119.585 97.828 L 119.62 97.828 A 2.472 2.472 0 0 1 119.897 97.433 A 1.889 1.889 0 0 1 120.269 97.1 A 1.459 1.459 0 0 1 121.102 96.844 A 3.361 3.361 0 0 1 121.403 96.857 A 2.453 2.453 0 0 1 121.68 96.897 Z M 123.316 96.933 L 123.316 101.766 L 122.584 101.766 L 122.584 96.933 L 123.316 96.933 Z M 126.902 101.656 L 126.024 101.656 A 1.683 1.683 0 0 0 125.721 101.682 Q 125.548 101.713 125.412 101.784 A 0.857 0.857 0 0 0 125.248 101.894 A 0.771 0.771 0 0 0 124.994 102.331 A 1.171 1.171 0 0 0 124.97 102.578 A 0.735 0.735 0 0 0 125.018 102.85 Q 125.096 103.048 125.301 103.173 Q 125.63 103.375 126.243 103.376 A 3.774 3.774 0 0 0 126.249 103.376 A 4.921 4.921 0 0 0 126.729 103.354 Q 127.211 103.307 127.514 103.156 A 1.216 1.216 0 0 0 127.614 103.1 A 1.068 1.068 0 0 0 127.862 102.893 A 0.8 0.8 0 0 0 128.057 102.353 A 0.99 0.99 0 0 0 128.039 102.156 Q 128.016 102.043 127.964 101.959 A 0.461 0.461 0 0 0 127.814 101.808 A 0.694 0.694 0 0 0 127.65 101.736 Q 127.474 101.682 127.197 101.665 A 4.658 4.658 0 0 0 126.902 101.656 Z M 125.53 99.105 A 0.783 0.783 0 0 0 125.653 99.248 A 0.946 0.946 0 0 0 126.034 99.455 Q 126.179 99.496 126.352 99.506 A 1.885 1.885 0 0 0 126.452 99.508 Q 127.298 99.508 127.476 98.86 A 1.483 1.483 0 0 0 127.523 98.467 A 1.574 1.574 0 0 0 127.47 98.036 Q 127.332 97.553 126.84 97.425 A 1.592 1.592 0 0 0 126.438 97.378 A 1.536 1.536 0 0 0 126.125 97.408 Q 125.934 97.448 125.787 97.541 A 0.843 0.843 0 0 0 125.645 97.656 Q 125.409 97.892 125.373 98.321 A 1.926 1.926 0 0 0 125.367 98.481 Q 125.367 98.863 125.53 99.105 Z M 122.533 95.489 A 0.811 0.811 0 0 0 122.522 95.623 Q 122.522 95.87 122.646 95.991 A 0.411 0.411 0 0 0 122.794 96.086 A 0.465 0.465 0 0 0 122.954 96.112 A 0.427 0.427 0 0 0 123.259 95.991 A 0.357 0.357 0 0 0 123.329 95.899 Q 123.387 95.789 123.387 95.623 A 0.837 0.837 0 0 0 123.383 95.544 Q 123.376 95.471 123.356 95.412 A 0.37 0.37 0 0 0 123.259 95.257 Q 123.131 95.138 122.954 95.138 A 0.559 0.559 0 0 0 122.917 95.139 A 0.423 0.423 0 0 0 122.646 95.255 A 0.342 0.342 0 0 0 122.57 95.362 Q 122.544 95.418 122.533 95.489 Z" id="right_labelLayer" stroke="#000000" fill="#000000" style="stroke:#000000;fill:#000000" vector-effect="non-scaling-stroke"/><path d="M 245.668 170.113 L 245.668 167.71 L 253.983 167.71 L 254.03 167.663 L 254.03 149.473 L 256.433 149.473 L 256.48 149.426 L 256.48 130.984 L 256.433 130.938 L 254.03 130.938 L 254.03 112.723 L 256.433 112.723 L 256.48 112.676 L 256.48 94.234 L 256.433 94.188 L 254.03 94.188 L 254.03 75.973 L 256.433 75.973 L 256.48 75.926 L 256.48 57.484 L 256.433 57.438 L 254.03 57.438 L 254.03 39.223 L 256.433 39.223 L 256.48 39.176 L 256.48 20.734 L 256.433 20.688 L 254.03 20.688 L 254.03 2.497 L 253.983 2.45 L 245.668 2.45 L 245.668 0.047 L 245.621 0 L 227.179 0 L 227.132 0.047 L 227.132 2.45 L 218.817 2.45 L 218.77 2.497 L 218.77 20.688 L 216.367 20.688 L 216.32 20.734 L 216.32 39.176 L 216.367 39.223 L 218.77 39.223 L 218.77 57.438 L 216.367 57.438 L 216.32 57.484 L 216.32 75.926 L 216.367 75.973 L 218.77 75.973 L 218.77 94.188 L 216.367 94.188 L 216.32 94.234 L 216.32 112.676 L 216.367 112.723 L 218.77 112.723 L 218.77 130.938 L 216.367 130.938 L 216.32 130.984 L 216.32 149.426 L 216.367 149.473 L 218.77 149.473 L 218.77 167.663 L 218.817 167.71 L 227.132 167.71 L 227.132 170.113 L 227.179 170.16 L 245.621 170.16 L 245.668 170.113 Z" id="bottom_outsideCutPath" stroke="#FF0000" stroke-width="0.1" style="stroke:#FF0000;stroke-width:0.1" vector-effect="non-scaling-stroke"/><path d="M 249.613 88.092 L 248.962 88.092 L 248.962 85.296 Q 248.962 84.974 248.876 84.753 A 0.787 0.787 0 0 0 248.742 84.525 A 0.685 0.685 0 0 0 248.424 84.319 Q 248.31 84.282 248.172 84.272 A 1.511 1.511 0 0 0 248.06 84.268 A 1.675 1.675 0 0 0 247.719 84.3 Q 247.363 84.374 247.162 84.617 A 1.076 1.076 0 0 0 246.979 84.947 Q 246.872 85.247 246.871 85.685 A 3.719 3.719 0 0 0 246.871 85.692 L 246.871 88.092 L 246.22 88.092 L 246.22 85.296 Q 246.22 84.974 246.134 84.753 A 0.787 0.787 0 0 0 246.001 84.525 A 0.683 0.683 0 0 0 245.687 84.321 Q 245.574 84.284 245.435 84.273 A 1.525 1.525 0 0 0 245.314 84.268 A 1.617 1.617 0 0 0 244.98 84.3 Q 244.774 84.344 244.62 84.447 A 0.853 0.853 0 0 0 244.418 84.635 A 1.092 1.092 0 0 0 244.256 84.942 Q 244.134 85.289 244.134 85.837 L 244.134 88.092 L 243.483 88.092 L 243.483 83.794 L 244.012 83.794 L 244.118 84.382 L 244.15 84.382 Q 244.334 84.068 244.669 83.892 A 1.546 1.546 0 0 1 245.28 83.72 A 1.867 1.867 0 0 1 245.42 83.715 Q 246.428 83.715 246.738 84.445 L 246.769 84.445 A 1.359 1.359 0 0 1 247.281 83.936 A 1.634 1.634 0 0 1 247.326 83.911 A 1.648 1.648 0 0 1 247.931 83.727 A 2.055 2.055 0 0 1 248.158 83.715 Q 248.887 83.715 249.25 84.09 Q 249.514 84.362 249.586 84.873 A 2.986 2.986 0 0 1 249.613 85.288 L 249.613 88.092 Z M 223.838 87.539 L 223.791 87.539 L 223.654 88.092 L 223.187 88.092 L 223.187 81.989 L 223.838 81.989 L 223.838 83.472 A 13.573 13.573 0 0 1 223.831 83.931 Q 223.823 84.162 223.807 84.366 L 223.838 84.366 A 1.48 1.48 0 0 1 224.919 83.739 A 2.224 2.224 0 0 1 225.187 83.723 A 1.99 1.99 0 0 1 225.747 83.798 A 1.49 1.49 0 0 1 226.503 84.301 Q 226.878 84.765 226.953 85.536 A 4.179 4.179 0 0 1 226.972 85.939 A 3.817 3.817 0 0 1 226.921 86.581 Q 226.863 86.923 226.736 87.198 A 1.83 1.83 0 0 1 226.499 87.584 A 1.541 1.541 0 0 1 225.404 88.16 A 2.208 2.208 0 0 1 225.187 88.17 A 1.975 1.975 0 0 1 224.691 88.11 A 1.718 1.718 0 0 1 224.421 88.015 Q 224.074 87.861 223.838 87.539 Z M 234.937 87.555 L 234.937 88.053 A 0.64 0.64 0 0 1 234.861 88.083 Q 234.767 88.114 234.625 88.137 A 2.822 2.822 0 0 1 234.441 88.161 Q 234.342 88.17 234.255 88.17 A 1.7 1.7 0 0 1 233.754 88.103 Q 233.203 87.933 233.059 87.335 A 2.046 2.046 0 0 1 233.008 86.857 L 233.008 84.299 L 232.392 84.299 L 232.392 83.986 L 233.008 83.715 L 233.282 82.797 L 233.659 82.797 L 233.659 83.794 L 234.906 83.794 L 234.906 84.299 L 233.659 84.299 L 233.659 86.829 A 1.311 1.311 0 0 0 233.678 87.059 Q 233.718 87.284 233.843 87.425 Q 234.027 87.633 234.349 87.633 A 2.138 2.138 0 0 0 234.662 87.611 A 1.97 1.97 0 0 0 234.682 87.608 A 3.522 3.522 0 0 0 234.776 87.591 Q 234.872 87.573 234.937 87.555 Z M 237.773 87.555 L 237.773 88.053 A 0.64 0.64 0 0 1 237.697 88.083 Q 237.602 88.114 237.461 88.137 A 2.822 2.822 0 0 1 237.277 88.161 Q 237.178 88.17 237.09 88.17 A 1.7 1.7 0 0 1 236.589 88.103 Q 236.038 87.933 235.894 87.335 A 2.046 2.046 0 0 1 235.843 86.857 L 235.843 84.299 L 235.227 84.299 L 235.227 83.986 L 235.843 83.715 L 236.118 82.797 L 236.494 82.797 L 236.494 83.794 L 237.741 83.794 L 237.741 84.299 L 236.494 84.299 L 236.494 86.829 A 1.311 1.311 0 0 0 236.513 87.059 Q 236.553 87.284 236.678 87.425 Q 236.863 87.633 237.184 87.633 A 2.138 2.138 0 0 0 237.498 87.611 A 1.97 1.97 0 0 0 237.518 87.608 A 3.522 3.522 0 0 0 237.612 87.591 Q 237.708 87.573 237.773 87.555 Z M 231.759 86.593 A 3.363 3.363 0 0 0 231.819 85.939 A 3.821 3.821 0 0 0 231.818 85.835 Q 231.808 85.478 231.731 85.174 A 2.027 2.027 0 0 0 231.288 84.315 Q 230.756 83.715 229.854 83.715 A 2.529 2.529 0 0 0 229.4 83.754 A 1.722 1.722 0 0 0 228.395 84.301 A 1.799 1.799 0 0 0 228.175 84.608 Q 228.004 84.904 227.929 85.285 A 3.38 3.38 0 0 0 227.87 85.939 A 3.257 3.257 0 0 0 227.911 86.466 A 2.408 2.408 0 0 0 228.113 87.123 A 2.14 2.14 0 0 0 228.16 87.216 A 1.763 1.763 0 0 0 228.803 87.9 A 1.813 1.813 0 0 0 229.219 88.085 A 2.091 2.091 0 0 0 229.827 88.17 A 2.528 2.528 0 0 0 230.268 88.133 A 1.736 1.736 0 0 0 231.29 87.58 Q 231.641 87.188 231.759 86.593 Z M 242.282 86.593 A 3.363 3.363 0 0 0 242.342 85.939 A 3.821 3.821 0 0 0 242.34 85.835 Q 242.331 85.478 242.253 85.174 A 2.027 2.027 0 0 0 241.81 84.315 Q 241.279 83.715 240.377 83.715 A 2.529 2.529 0 0 0 239.923 83.754 A 1.722 1.722 0 0 0 238.918 84.301 A 1.799 1.799 0 0 0 238.697 84.608 Q 238.527 84.904 238.452 85.285 A 3.38 3.38 0 0 0 238.392 85.939 A 3.257 3.257 0 0 0 238.433 86.466 A 2.408 2.408 0 0 0 238.635 87.123 A 2.14 2.14 0 0 0 238.683 87.216 A 1.763 1.763 0 0 0 239.326 87.9 A 1.813 1.813 0 0 0 239.742 88.085 A 2.091 2.091 0 0 0 240.349 88.17 A 2.528 2.528 0 0 0 240.791 88.133 A 1.736 1.736 0 0 0 241.812 87.58 Q 242.164 87.188 242.282 86.593 Z M 228.544 85.939 A 3.297 3.297 0 0 0 228.576 86.41 Q 228.646 86.896 228.874 87.194 A 1.067 1.067 0 0 0 229.569 87.603 A 1.617 1.617 0 0 0 229.843 87.625 Q 230.482 87.625 230.813 87.196 Q 231.145 86.766 231.145 85.939 A 3.248 3.248 0 0 0 231.114 85.476 Q 231.044 84.989 230.813 84.694 Q 230.482 84.268 229.835 84.268 A 1.549 1.549 0 0 0 229.449 84.313 A 1.037 1.037 0 0 0 228.87 84.688 A 1.346 1.346 0 0 0 228.661 85.092 Q 228.599 85.278 228.57 85.505 A 3.44 3.44 0 0 0 228.544 85.939 Z M 239.067 85.939 A 3.297 3.297 0 0 0 239.098 86.41 Q 239.169 86.896 239.396 87.194 A 1.067 1.067 0 0 0 240.091 87.603 A 1.617 1.617 0 0 0 240.365 87.625 Q 241.004 87.625 241.336 87.196 Q 241.667 86.766 241.667 85.939 A 3.248 3.248 0 0 0 241.636 85.476 Q 241.566 84.989 241.336 84.694 Q 241.004 84.268 240.357 84.268 A 1.549 1.549 0 0 0 239.971 84.313 A 1.037 1.037 0 0 0 239.392 84.688 A 1.346 1.346 0 0 0 239.183 85.092 Q 239.121 85.278 239.092 85.505 A 3.44 3.44 0 0 0 239.067 85.939 Z M 225.093 84.268 A 1.829 1.829 0 0 0 224.739 84.3 Q 224.537 84.34 224.384 84.43 A 0.866 0.866 0 0 0 224.132 84.65 Q 223.874 84.986 223.843 85.727 A 5.016 5.016 0 0 0 223.838 85.939 Q 223.838 86.708 224.056 87.106 A 0.982 0.982 0 0 0 224.14 87.235 Q 224.411 87.585 224.975 87.621 A 2.093 2.093 0 0 0 225.109 87.625 A 1.298 1.298 0 0 0 225.478 87.576 A 0.936 0.936 0 0 0 226.003 87.188 A 1.494 1.494 0 0 0 226.188 86.788 Q 226.297 86.43 226.297 85.931 Q 226.297 85.092 226.003 84.68 A 0.949 0.949 0 0 0 225.399 84.297 A 1.506 1.506 0 0 0 225.093 84.268 Z" id="bottom_labelLayer" stroke="#000000" fill="#000000" style="stroke:#000000;fill:#000000" vector-effect="non-scaling-stroke"/></g></svg>