<svg width="226.48mm" height="203.32mm" viewBox="0 0 226.48 203.32" xmlns="http://www.w3.org/2000/svg" version="1.1" preserveAspectRatio="xMidYMid meet"><g id="svgGroup" stroke-linecap="round" fill-rule="evenodd" font-size="9pt" stroke="#000" stroke-width="0.25mm" fill="none" style="stroke:#000;stroke-width:0.25mm;fill:none"><path d="M 16.298 203.273 L 16.298 200.87 L 43.862 200.87 L 43.862 203.273 L 43.909 203.32 L 60.113 203.32 L 60.16 203.273 L 60.16 177.069 L 60.113 177.022 L 57.71 177.022 L 57.71 149.458 L 60.113 149.458 L 60.16 149.411 L 60.16 123.207 L 60.113 123.16 L 43.909 123.16 L 43.862 123.207 L 43.862 125.61 L 16.298 125.61 L 16.298 123.207 L 16.251 123.16 L 0.047 123.16 L 0 123.207 L 0 149.411 L 0.047 149.458 L 2.45 149.458 L 2.45 177.022 L 0.047 177.022 L 0 177.069 L 0 203.273 L 0.047 203.32 L 16.251 203.32 L 16.298 203.273 Z" id="front_outsideCutPath" stroke="#FF0000" stroke-width="0.1" style="stroke:#FF0000;stroke-width:0.1" vector-effect="non-scaling-stroke"/><path d="M 38.848 167.784 L 37.873 167.784 L 37.873 163.619 A 2.757 2.757 0 0 0 37.842 163.187 Q 37.805 162.959 37.728 162.777 A 1.16 1.16 0 0 0 37.515 162.444 A 1.1 1.1 0 0 0 37.064 162.156 Q 36.887 162.094 36.669 162.07 A 2.585 2.585 0 0 0 36.393 162.056 Q 35.727 162.056 35.296 162.293 A 1.375 1.375 0 0 0 34.912 162.602 A 1.594 1.594 0 0 0 34.635 163.087 Q 34.442 163.601 34.442 164.406 L 34.442 167.784 L 33.467 167.784 L 33.467 161.345 L 34.26 161.345 L 34.419 162.226 L 34.466 162.226 A 1.975 1.975 0 0 1 35.239 161.523 A 2.375 2.375 0 0 1 35.306 161.489 A 2.641 2.641 0 0 1 36.246 161.238 A 3.193 3.193 0 0 1 36.51 161.228 A 3.85 3.85 0 0 1 37.166 161.28 Q 37.852 161.399 38.261 161.789 A 1.69 1.69 0 0 1 38.673 162.435 Q 38.772 162.702 38.815 163.032 A 4.256 4.256 0 0 1 38.848 163.584 L 38.848 167.784 Z M 20.113 161.345 L 20.113 162.103 L 18.474 162.103 L 18.474 167.784 L 17.499 167.784 L 17.499 162.103 L 16.347 162.103 L 16.347 161.662 L 17.499 161.31 L 17.499 160.952 A 3.953 3.953 0 0 1 17.591 160.056 Q 17.936 158.578 19.573 158.578 A 3.141 3.141 0 0 1 20.017 158.612 Q 20.363 158.662 20.771 158.784 L 20.518 159.565 A 4.736 4.736 0 0 0 20.15 159.461 Q 19.817 159.383 19.555 159.383 A 1.315 1.315 0 0 0 19.238 159.419 A 0.845 0.845 0 0 0 18.738 159.75 Q 18.474 160.117 18.474 160.928 L 18.474 161.345 L 20.113 161.345 Z M 43.813 166.979 L 43.813 167.725 Q 43.654 167.802 43.346 167.852 Q 43.037 167.902 42.791 167.902 Q 41.3 167.902 40.999 166.65 A 3.065 3.065 0 0 1 40.922 165.934 L 40.922 162.103 L 40 162.103 L 40 161.633 L 40.922 161.228 L 41.334 159.853 L 41.898 159.853 L 41.898 161.345 L 43.766 161.345 L 43.766 162.103 L 41.898 162.103 L 41.898 165.892 A 1.964 1.964 0 0 0 41.926 166.237 Q 41.986 166.574 42.174 166.785 Q 42.45 167.097 42.932 167.097 A 3.203 3.203 0 0 0 43.401 167.063 A 2.95 2.95 0 0 0 43.431 167.059 A 5.276 5.276 0 0 0 43.572 167.034 Q 43.716 167.008 43.813 166.979 Z M 24.995 161.298 L 24.86 162.203 A 4.298 4.298 0 0 0 24.551 162.146 Q 24.397 162.124 24.26 162.117 A 2.287 2.287 0 0 0 24.155 162.115 A 1.69 1.69 0 0 0 22.907 162.654 A 2.312 2.312 0 0 0 22.818 162.749 A 2.227 2.227 0 0 0 22.281 164 A 2.96 2.96 0 0 0 22.263 164.33 L 22.263 167.784 L 21.288 167.784 L 21.288 161.345 L 22.093 161.345 L 22.205 162.538 L 22.252 162.538 A 3.293 3.293 0 0 1 22.62 162.012 A 2.516 2.516 0 0 1 23.115 161.568 A 1.944 1.944 0 0 1 24.226 161.228 A 4.477 4.477 0 0 1 24.626 161.245 A 3.268 3.268 0 0 1 24.995 161.298 Z M 31.668 165.539 A 5.038 5.038 0 0 0 31.757 164.559 Q 31.757 163.025 30.961 162.127 Q 30.165 161.228 28.814 161.228 Q 27.416 161.228 26.628 162.106 A 2.694 2.694 0 0 0 26.298 162.565 Q 26.043 163.009 25.93 163.58 A 5.064 5.064 0 0 0 25.841 164.559 A 4.879 4.879 0 0 0 25.902 165.349 A 3.608 3.608 0 0 0 26.205 166.333 A 3.206 3.206 0 0 0 26.276 166.472 A 2.64 2.64 0 0 0 27.239 167.496 A 2.716 2.716 0 0 0 27.863 167.773 A 3.132 3.132 0 0 0 28.773 167.902 A 3.787 3.787 0 0 0 29.434 167.846 A 2.6 2.6 0 0 0 30.964 167.017 A 2.721 2.721 0 0 0 31.288 166.572 Q 31.552 166.12 31.668 165.539 Z M 26.852 164.559 A 4.939 4.939 0 0 0 26.899 165.264 Q 27.004 165.992 27.345 166.439 A 1.598 1.598 0 0 0 28.386 167.052 A 2.422 2.422 0 0 0 28.796 167.085 A 2.265 2.265 0 0 0 29.394 167.011 A 1.576 1.576 0 0 0 30.25 166.442 Q 30.62 165.963 30.714 165.155 A 5.137 5.137 0 0 0 30.747 164.559 A 4.866 4.866 0 0 0 30.701 163.865 Q 30.65 163.512 30.543 163.226 A 2.008 2.008 0 0 0 30.25 162.693 A 1.604 1.604 0 0 0 29.253 162.098 A 2.46 2.46 0 0 0 28.785 162.056 A 2.321 2.321 0 0 0 28.207 162.124 A 1.553 1.553 0 0 0 27.339 162.685 Q 26.852 163.313 26.852 164.559 Z" id="front_labelLayer" stroke="#000000" fill="#000000" style="stroke:#000000;fill:#000000" vector-effect="non-scaling-stroke"/><path d="M 99.458 203.273 L 99.458 200.87 L 127.022 200.87 L 127.022 203.273 L 127.069 203.32 L 160.823 203.32 L 160.87 203.273 L 160.87 177.182 L 163.273 177.182 L 163.32 177.135 L 163.32 149.345 L 163.273 149.298 L 160.87 149.298 L 160.87 123.207 L 160.823 123.16 L 127.069 123.16 L 127.022 123.207 L 127.022 125.61 L 99.458 125.61 L 99.458 123.207 L 99.411 123.16 L 65.657 123.16 L 65.61 123.207 L 65.61 149.298 L 63.207 149.298 L 63.16 149.345 L 63.16 177.135 L 63.207 177.182 L 65.61 177.182 L 65.61 203.273 L 65.657 203.32 L 99.411 203.32 L 99.458 203.273 Z" id="left_outsideCutPath" stroke="#FF0000" stroke-width="0.1" style="stroke:#FF0000;stroke-width:0.1" vector-effect="non-scaling-stroke"/><path d="M 118.943 160.715 L 118.943 161.725 L 116.759 161.725 L 116.759 169.295 L 115.459 169.295 L 115.459 161.725 L 113.925 161.725 L 113.925 161.138 L 115.459 160.668 L 115.459 160.191 A 5.267 5.267 0 0 1 115.582 158.997 Q 115.962 157.369 117.519 157.087 A 3.95 3.95 0 0 1 118.223 157.028 A 4.185 4.185 0 0 1 118.815 157.073 Q 119.276 157.14 119.82 157.302 L 119.483 158.343 Q 118.949 158.171 118.526 158.121 A 2.795 2.795 0 0 0 118.199 158.101 A 1.752 1.752 0 0 0 117.777 158.148 A 1.125 1.125 0 0 0 117.111 158.59 A 1.504 1.504 0 0 0 116.912 158.991 Q 116.78 159.382 116.762 159.964 A 6.135 6.135 0 0 0 116.759 160.159 L 116.759 160.715 L 118.943 160.715 Z M 112.86 164.418 L 112.86 165.24 L 106.95 165.24 A 5.216 5.216 0 0 0 107.041 166.113 Q 107.135 166.589 107.323 166.964 A 2.44 2.44 0 0 0 107.713 167.534 A 2.361 2.361 0 0 0 108.953 168.232 A 3.578 3.578 0 0 0 109.753 168.316 A 6.863 6.863 0 0 0 112.323 167.807 A 7.864 7.864 0 0 0 112.492 167.737 L 112.492 168.896 A 7.801 7.801 0 0 1 111.781 169.164 A 5.966 5.966 0 0 1 111.189 169.322 A 5.455 5.455 0 0 1 110.648 169.406 Q 110.222 169.451 109.706 169.451 A 5.05 5.05 0 0 1 108.442 169.302 A 3.576 3.576 0 0 1 106.704 168.293 A 3.824 3.824 0 0 1 105.789 166.613 Q 105.604 165.92 105.604 165.076 A 6.823 6.823 0 0 1 105.73 163.722 Q 105.896 162.9 106.282 162.261 A 3.848 3.848 0 0 1 106.625 161.78 A 3.33 3.33 0 0 1 109.052 160.569 A 4.594 4.594 0 0 1 109.369 160.559 Q 110.982 160.559 111.921 161.619 Q 112.86 162.68 112.86 164.418 Z M 124.454 168.222 L 124.454 169.217 Q 124.242 169.318 123.831 169.385 A 5.632 5.632 0 0 1 123.464 169.433 Q 123.291 169.449 123.136 169.451 A 3.333 3.333 0 0 1 123.092 169.451 Q 121.106 169.451 120.704 167.783 A 4.085 4.085 0 0 1 120.602 166.829 L 120.602 161.725 L 119.373 161.725 L 119.373 161.099 L 120.602 160.559 L 121.15 158.727 L 121.902 158.727 L 121.902 160.715 L 124.391 160.715 L 124.391 161.725 L 121.902 161.725 L 121.902 166.774 Q 121.902 167.319 122.083 167.686 A 1.26 1.26 0 0 0 122.27 167.964 A 1.207 1.207 0 0 0 123.012 168.359 A 1.737 1.737 0 0 0 123.28 168.379 A 4.268 4.268 0 0 0 123.905 168.334 A 3.941 3.941 0 0 0 123.945 168.328 Q 124.251 168.28 124.436 168.227 A 1.953 1.953 0 0 0 124.454 168.222 Z M 103.326 157.114 L 103.326 169.295 L 102.026 169.295 L 102.026 157.114 L 103.326 157.114 Z M 106.981 164.183 L 111.467 164.183 Q 111.467 163.352 111.216 162.784 A 2.01 2.01 0 0 0 110.919 162.3 Q 110.371 161.647 109.353 161.647 A 2.562 2.562 0 0 0 108.613 161.749 A 1.979 1.979 0 0 0 107.706 162.32 A 2.567 2.567 0 0 0 107.195 163.181 Q 107.033 163.625 106.981 164.183 Z" id="left_labelLayer" stroke="#000000" fill="#000000" style="stroke:#000000;fill:#000000" vector-effect="non-scaling-stroke"/><path d="M 210.342 203.273 L 210.342 200.87 L 223.983 200.87 L 224.03 200.823 L 224.03 167.182 L 226.433 167.182 L 226.48 167.135 L 226.48 139.345 L 226.433 139.298 L 224.03 139.298 L 224.03 105.657 L 223.983 105.61 L 210.342 105.61 L 210.342 103.207 L 210.295 103.16 L 182.505 103.16 L 182.458 103.207 L 182.458 105.61 L 168.817 105.61 L 168.77 105.657 L 168.77 139.298 L 166.367 139.298 L 166.32 139.345 L 166.32 167.135 L 166.367 167.182 L 168.77 167.182 L 168.77 200.823 L 168.817 200.87 L 182.458 200.87 L 182.458 203.273 L 182.505 203.32 L 210.295 203.32 L 210.342 203.273 Z" id="top_outsideCutPath" stroke="#FF0000" stroke-width="0.1" style="stroke:#FF0000;stroke-width:0.1" vector-effect="non-scaling-stroke"/><path d="M 200.724 154.932 L 200.653 154.932 A 9.229 9.229 0 0 1 200.714 155.614 A 7.734 7.734 0 0 1 200.724 156.001 L 200.724 158.651 L 199.749 158.651 L 199.749 149.321 L 200.542 149.321 L 200.677 150.203 L 200.724 150.203 A 2.625 2.625 0 0 1 201.104 149.771 A 2.03 2.03 0 0 1 201.599 149.439 Q 202.099 149.204 202.745 149.204 A 2.989 2.989 0 0 1 203.589 149.317 A 2.21 2.21 0 0 1 204.722 150.079 A 2.928 2.928 0 0 1 205.222 151.055 Q 205.351 151.475 205.395 151.981 A 6.351 6.351 0 0 1 205.418 152.535 Q 205.418 154.121 204.71 155 A 2.309 2.309 0 0 1 203.069 155.862 A 3.308 3.308 0 0 1 202.745 155.878 A 2.958 2.958 0 0 1 202.002 155.787 A 2.574 2.574 0 0 1 201.596 155.646 Q 201.076 155.414 200.724 154.932 Z M 191.195 154.956 L 191.195 155.702 Q 191.036 155.778 190.728 155.828 Q 190.419 155.878 190.172 155.878 Q 188.682 155.878 188.381 154.626 A 3.065 3.065 0 0 1 188.304 153.91 L 188.304 150.079 L 187.382 150.079 L 187.382 149.609 L 188.304 149.204 L 188.715 147.829 L 189.279 147.829 L 189.279 149.321 L 191.148 149.321 L 191.148 150.079 L 189.279 150.079 L 189.279 153.869 A 1.964 1.964 0 0 0 189.308 154.214 Q 189.368 154.55 189.556 154.762 Q 189.832 155.073 190.313 155.073 A 3.203 3.203 0 0 0 190.783 155.039 A 2.95 2.95 0 0 0 190.813 155.035 A 5.276 5.276 0 0 0 190.954 155.011 Q 191.098 154.984 191.195 154.956 Z M 197.95 153.515 A 5.038 5.038 0 0 0 198.039 152.535 Q 198.039 151.002 197.243 150.103 Q 196.447 149.204 195.096 149.204 Q 193.697 149.204 192.91 150.082 A 2.694 2.694 0 0 0 192.579 150.541 Q 192.324 150.985 192.212 151.556 A 5.064 5.064 0 0 0 192.123 152.535 A 4.879 4.879 0 0 0 192.184 153.325 A 3.608 3.608 0 0 0 192.487 154.309 A 3.206 3.206 0 0 0 192.558 154.448 A 2.64 2.64 0 0 0 193.521 155.473 A 2.716 2.716 0 0 0 194.145 155.75 A 3.132 3.132 0 0 0 195.055 155.878 A 3.787 3.787 0 0 0 195.716 155.823 A 2.6 2.6 0 0 0 197.246 154.994 A 2.721 2.721 0 0 0 197.57 154.549 Q 197.834 154.097 197.95 153.515 Z M 193.133 152.535 A 4.939 4.939 0 0 0 193.18 153.241 Q 193.286 153.968 193.627 154.415 A 1.598 1.598 0 0 0 194.668 155.028 A 2.422 2.422 0 0 0 195.078 155.061 A 2.265 2.265 0 0 0 195.676 154.987 A 1.576 1.576 0 0 0 196.532 154.418 Q 196.901 153.94 196.996 153.131 A 5.137 5.137 0 0 0 197.029 152.535 A 4.866 4.866 0 0 0 196.982 151.842 Q 196.932 151.489 196.824 151.203 A 2.008 2.008 0 0 0 196.532 150.67 A 1.604 1.604 0 0 0 195.535 150.075 A 2.46 2.46 0 0 0 195.066 150.032 A 2.321 2.321 0 0 0 194.488 150.1 A 1.553 1.553 0 0 0 193.621 150.661 Q 193.133 151.29 193.133 152.535 Z M 200.724 152.318 L 200.724 152.535 A 6.448 6.448 0 0 0 200.756 153.201 Q 200.844 154.047 201.176 154.477 A 1.415 1.415 0 0 0 201.894 154.961 Q 202.134 155.036 202.427 155.055 A 3.136 3.136 0 0 0 202.627 155.061 A 1.643 1.643 0 0 0 203.266 154.941 Q 203.635 154.787 203.898 154.437 A 1.943 1.943 0 0 0 203.935 154.386 A 2.358 2.358 0 0 0 204.258 153.697 Q 204.408 153.191 204.408 152.523 Q 204.408 151.733 204.204 151.184 A 2.068 2.068 0 0 0 203.935 150.676 A 1.517 1.517 0 0 0 202.825 150.044 A 2.098 2.098 0 0 0 202.604 150.032 Q 201.971 150.032 201.562 150.257 A 1.289 1.289 0 0 0 201.176 150.579 Q 200.736 151.125 200.724 152.318 Z" id="top_labelLayer" stroke="#000000" fill="#000000" style="stroke:#000000;fill:#000000" vector-effect="non-scaling-stroke"/><path d="M 16.298 120.113 L 16.298 117.71 L 43.862 117.71 L 43.862 120.113 L 43.909 120.16 L 60.113 120.16 L 60.16 120.113 L 60.16 93.909 L 60.113 93.862 L 57.71 93.862 L 57.71 66.298 L 60.113 66.298 L 60.16 66.251 L 60.16 40.047 L 60.113 40 L 43.909 40 L 43.862 40.047 L 43.862 42.45 L 16.298 42.45 L 16.298 40.047 L 16.251 40 L 0.047 40 L 0 40.047 L 0 66.251 L 0.047 66.298 L 2.45 66.298 L 2.45 93.862 L 0.047 93.862 L 0 93.909 L 0 120.113 L 0.047 120.16 L 16.251 120.16 L 16.298 120.113 Z" id="back_outsideCutPath" stroke="#FF0000" stroke-width="0.1" style="stroke:#FF0000;stroke-width:0.1" vector-effect="non-scaling-stroke"/><path d="M 38.317 81.296 L 38.364 81.296 A 5.774 5.774 0 0 1 38.507 81.103 Q 38.671 80.889 38.906 80.616 A 20.954 20.954 0 0 1 39.133 80.356 L 41.213 78.153 L 42.371 78.153 L 39.762 80.897 L 42.553 84.592 L 41.372 84.592 L 39.098 81.549 L 38.364 82.183 L 38.364 84.592 L 37.4 84.592 L 37.4 75.45 L 38.364 75.45 L 38.364 80.297 A 6.499 6.499 0 0 1 38.361 80.481 Q 38.352 80.782 38.318 81.272 A 39.563 39.563 0 0 1 38.317 81.296 Z M 18.583 83.764 L 18.512 83.764 L 18.307 84.592 L 17.607 84.592 L 17.607 75.45 L 18.583 75.45 L 18.583 77.671 A 20.333 20.333 0 0 1 18.572 78.358 Q 18.561 78.683 18.539 78.972 A 12.173 12.173 0 0 1 18.536 79.011 L 18.583 79.011 Q 19.264 78.047 20.604 78.047 A 2.981 2.981 0 0 1 21.442 78.159 A 2.231 2.231 0 0 1 22.575 78.914 A 2.874 2.874 0 0 1 23.079 79.884 Q 23.202 80.284 23.249 80.763 A 6.26 6.26 0 0 1 23.277 81.367 Q 23.277 82.953 22.569 83.831 A 2.309 2.309 0 0 1 20.928 84.694 A 3.308 3.308 0 0 1 20.604 84.709 A 2.958 2.958 0 0 1 19.86 84.619 A 2.574 2.574 0 0 1 19.455 84.477 Q 18.935 84.245 18.583 83.764 Z M 29.663 84.592 L 28.94 84.592 L 28.746 83.675 L 28.699 83.675 A 4.043 4.043 0 0 1 28.372 84.042 Q 28.196 84.215 28.021 84.335 A 1.797 1.797 0 0 1 27.739 84.495 A 2.249 2.249 0 0 1 27.274 84.642 Q 27.049 84.688 26.788 84.703 A 4.389 4.389 0 0 1 26.543 84.709 Q 25.586 84.709 25.042 84.216 Q 24.499 83.722 24.499 82.812 Q 24.499 80.924 27.42 80.775 A 9.526 9.526 0 0 1 27.618 80.767 L 28.711 80.732 L 28.711 80.333 Q 28.711 79.575 28.385 79.213 Q 28.125 78.925 27.616 78.867 A 2.41 2.41 0 0 0 27.342 78.852 A 3.175 3.175 0 0 0 26.612 78.943 Q 26.276 79.023 25.911 79.171 A 6.532 6.532 0 0 0 25.521 79.346 L 25.221 78.599 A 4.497 4.497 0 0 1 26.089 78.243 A 5.118 5.118 0 0 1 26.264 78.194 Q 26.831 78.047 27.401 78.047 A 4.119 4.119 0 0 1 28.028 78.092 Q 28.351 78.141 28.608 78.247 A 1.66 1.66 0 0 1 29.108 78.558 Q 29.543 78.959 29.637 79.739 A 3.837 3.837 0 0 1 29.663 80.197 L 29.663 84.592 Z M 35.967 78.37 L 35.667 79.199 A 4.339 4.339 0 0 0 35.196 79.042 A 5.182 5.182 0 0 0 34.962 78.984 Q 34.635 78.911 34.373 78.901 A 2.162 2.162 0 0 0 34.286 78.899 A 2.163 2.163 0 0 0 33.408 79.064 Q 32.324 79.542 32.324 81.402 Q 32.324 82.181 32.53 82.722 A 2.023 2.023 0 0 0 32.803 83.223 A 1.549 1.549 0 0 0 33.807 83.823 A 2.359 2.359 0 0 0 34.222 83.858 A 4.083 4.083 0 0 0 35.348 83.694 A 5.041 5.041 0 0 0 35.873 83.511 L 35.873 84.375 Q 35.227 84.709 34.245 84.709 A 3.645 3.645 0 0 1 33.359 84.608 A 2.472 2.472 0 0 1 32.08 83.849 Q 31.314 82.988 31.314 81.414 A 5.381 5.381 0 0 1 31.397 80.435 Q 31.498 79.889 31.722 79.459 A 2.689 2.689 0 0 1 32.092 78.917 A 2.525 2.525 0 0 1 33.475 78.121 A 3.828 3.828 0 0 1 34.31 78.035 Q 34.774 78.035 35.238 78.135 A 4.868 4.868 0 0 1 35.509 78.201 Q 35.785 78.277 35.967 78.37 Z M 20.463 78.864 A 2.741 2.741 0 0 0 19.932 78.912 Q 19.63 78.971 19.4 79.106 A 1.297 1.297 0 0 0 19.023 79.437 Q 18.583 80.009 18.583 81.367 A 6.448 6.448 0 0 0 18.615 82.033 Q 18.703 82.879 19.035 83.308 A 1.415 1.415 0 0 0 19.753 83.793 Q 19.993 83.868 20.285 83.887 A 3.136 3.136 0 0 0 20.486 83.893 A 1.944 1.944 0 0 0 21.038 83.819 A 1.403 1.403 0 0 0 21.826 83.238 Q 22.14 82.77 22.23 82.01 A 5.588 5.588 0 0 0 22.266 81.355 A 5.762 5.762 0 0 0 22.231 80.698 Q 22.142 79.924 21.826 79.481 A 1.422 1.422 0 0 0 20.92 78.908 A 2.256 2.256 0 0 0 20.463 78.864 Z M 28.688 82.007 L 28.688 81.425 L 27.712 81.466 Q 26.741 81.501 26.222 81.73 A 1.498 1.498 0 0 0 26.035 81.828 Q 25.521 82.148 25.521 82.824 A 1.394 1.394 0 0 0 25.555 83.143 Q 25.613 83.389 25.769 83.558 A 0.869 0.869 0 0 0 25.841 83.628 Q 26.118 83.867 26.585 83.899 A 2.193 2.193 0 0 0 26.737 83.905 Q 27.524 83.905 28.019 83.532 A 1.628 1.628 0 0 0 28.168 83.405 Q 28.685 82.909 28.688 82.017 A 3.114 3.114 0 0 0 28.688 82.007 Z" id="back_labelLayer" stroke="#000000" fill="#000000" style="stroke:#000000;fill:#000000" vector-effect="non-scaling-stroke"/><path d="M 99.458 120.113 L 99.458 117.71 L 127.022 117.71 L 127.022 120.113 L 127.069 120.16 L 160.823 120.16 L 160.87 120.113 L 160.87 94.022 L 163.273 94.022 L 163.32 93.975 L 163.32 66.185 L 163.273 66.138 L 160.87 66.138 L 160.87 40.047 L 160.823 40 L 127.069 40 L 127.022 40.047 L 127.022 42.45 L 99.458 42.45 L 99.458 40.047 L 99.411 40 L 65.657 40 L 65.61 40.047 L 65.61 66.138 L 63.207 66.138 L 63.16 66.185 L 63.16 93.975 L 63.207 94.022 L 65.61 94.022 L 65.61 120.113 L 65.657 120.16 L 99.411 120.16 L 99.458 120.113 Z" id="right_outsideCutPath" stroke="#FF0000" stroke-width="0.1" style="stroke:#FF0000;stroke-width:0.1" vector-effect="non-scaling-stroke"/><path d="M 123.209 84.245 L 121.91 84.245 L 121.91 78.694 A 3.673 3.673 0 0 0 121.868 78.118 Q 121.819 77.815 121.716 77.573 A 1.546 1.546 0 0 0 121.432 77.129 A 1.465 1.465 0 0 0 120.831 76.745 Q 120.454 76.612 119.937 76.612 A 3.932 3.932 0 0 0 119.202 76.676 Q 118.399 76.829 117.96 77.348 A 2.162 2.162 0 0 0 117.593 77.998 Q 117.372 78.594 117.343 79.479 A 8.387 8.387 0 0 0 117.338 79.759 L 117.338 84.245 L 116.039 84.245 L 116.039 72.064 L 117.338 72.064 L 117.338 75.751 Q 117.338 76.23 117.306 76.591 A 5.083 5.083 0 0 1 117.275 76.855 L 117.354 76.855 Q 117.737 76.236 118.446 75.88 A 3.336 3.336 0 0 1 119.541 75.555 A 4.217 4.217 0 0 1 120.062 75.524 Q 121.636 75.524 122.422 76.272 A 2.263 2.263 0 0 1 122.981 77.148 Q 123.209 77.77 123.209 78.647 L 123.209 84.245 Z M 111.31 75.665 L 114.277 75.665 L 114.277 76.487 L 112.688 76.675 A 2.112 2.112 0 0 1 112.871 76.947 Q 112.983 77.142 113.08 77.391 A 2.5 2.5 0 0 1 113.228 77.988 A 3.211 3.211 0 0 1 113.252 78.389 A 2.979 2.979 0 0 1 113.115 79.313 A 2.409 2.409 0 0 1 112.391 80.401 Q 111.615 81.078 110.318 81.145 A 5.644 5.644 0 0 1 110.027 81.152 A 4.176 4.176 0 0 1 109.543 81.125 A 3.527 3.527 0 0 1 109.306 81.09 Q 108.833 81.34 108.629 81.664 A 0.978 0.978 0 0 0 108.477 82.194 A 0.673 0.673 0 0 0 108.511 82.414 Q 108.576 82.604 108.766 82.714 A 0.912 0.912 0 0 0 108.968 82.797 Q 109.18 82.859 109.502 82.876 A 4.943 4.943 0 0 0 109.76 82.882 L 111.279 82.882 Q 112.208 82.882 112.851 83.144 A 2.348 2.348 0 0 1 113.42 83.47 A 1.901 1.901 0 0 1 114.127 84.681 A 2.855 2.855 0 0 1 114.168 85.176 A 2.814 2.814 0 0 1 114.007 86.149 Q 113.747 86.858 113.069 87.319 A 3.089 3.089 0 0 1 113.025 87.348 Q 112.228 87.87 110.921 88.027 A 10.3 10.3 0 0 1 109.69 88.096 A 7.281 7.281 0 0 1 108.713 88.035 Q 108.218 87.968 107.813 87.826 A 3.02 3.02 0 0 1 107.095 87.47 Q 106.242 86.884 106.187 85.846 A 2.744 2.744 0 0 1 106.183 85.701 Q 106.183 84.918 106.684 84.346 A 2.269 2.269 0 0 1 107.463 83.778 A 3.216 3.216 0 0 1 108.093 83.571 A 1.349 1.349 0 0 1 107.569 83.148 A 1.601 1.601 0 0 1 107.541 83.109 A 1.205 1.205 0 0 1 107.32 82.458 A 1.492 1.492 0 0 1 107.318 82.381 Q 107.318 81.912 107.569 81.559 A 1.86 1.86 0 0 1 107.814 81.282 Q 108.034 81.076 108.359 80.878 A 2.278 2.278 0 0 1 107.37 80.086 A 2.823 2.823 0 0 1 107.275 79.947 Q 106.856 79.289 106.856 78.444 A 3.754 3.754 0 0 1 106.955 77.556 A 2.47 2.47 0 0 1 107.702 76.272 Q 108.547 75.508 110.097 75.508 A 4.981 4.981 0 0 1 110.756 75.55 A 3.794 3.794 0 0 1 111.31 75.665 Z M 129.824 83.172 L 129.824 84.166 Q 129.613 84.268 129.202 84.335 A 5.632 5.632 0 0 1 128.834 84.382 Q 128.661 84.399 128.506 84.401 A 3.333 3.333 0 0 1 128.462 84.401 Q 126.476 84.401 126.074 82.733 A 4.085 4.085 0 0 1 125.972 81.779 L 125.972 76.675 L 124.743 76.675 L 124.743 76.048 L 125.972 75.508 L 126.52 73.677 L 127.272 73.677 L 127.272 75.665 L 129.761 75.665 L 129.761 76.675 L 127.272 76.675 L 127.272 81.724 Q 127.272 82.268 127.454 82.635 A 1.26 1.26 0 0 0 127.64 82.914 A 1.207 1.207 0 0 0 128.382 83.309 A 1.737 1.737 0 0 0 128.65 83.329 A 4.268 4.268 0 0 0 129.275 83.284 A 3.941 3.941 0 0 0 129.315 83.278 Q 129.621 83.229 129.806 83.177 A 1.953 1.953 0 0 0 129.824 83.172 Z M 101.596 75.602 L 101.416 76.808 A 5.727 5.727 0 0 0 101.004 76.732 Q 100.798 76.702 100.616 76.694 A 3.048 3.048 0 0 0 100.476 76.69 A 2.252 2.252 0 0 0 98.813 77.409 A 3.08 3.08 0 0 0 98.695 77.536 Q 97.956 78.381 97.956 79.642 L 97.956 84.245 L 96.656 84.245 L 96.656 75.665 L 97.729 75.665 L 97.877 77.254 L 97.94 77.254 A 4.388 4.388 0 0 1 98.431 76.553 A 3.352 3.352 0 0 1 99.091 75.962 Q 99.764 75.508 100.57 75.508 A 5.966 5.966 0 0 1 101.104 75.531 A 4.354 4.354 0 0 1 101.596 75.602 Z M 104.5 75.665 L 104.5 84.245 L 103.2 84.245 L 103.2 75.665 L 104.5 75.665 Z M 110.864 84.049 L 109.306 84.049 A 2.987 2.987 0 0 0 108.768 84.094 Q 108.26 84.188 107.929 84.472 A 1.369 1.369 0 0 0 107.479 85.248 A 2.079 2.079 0 0 0 107.435 85.685 Q 107.435 86.335 107.946 86.692 A 1.525 1.525 0 0 0 108.023 86.742 Q 108.607 87.1 109.695 87.102 A 6.795 6.795 0 0 0 109.706 87.102 A 8.736 8.736 0 0 0 110.559 87.063 Q 111.414 86.979 111.951 86.711 A 2.158 2.158 0 0 0 112.128 86.613 A 1.896 1.896 0 0 0 112.568 86.244 A 1.421 1.421 0 0 0 112.915 85.286 A 1.758 1.758 0 0 0 112.883 84.937 Q 112.842 84.736 112.75 84.586 A 0.819 0.819 0 0 0 112.485 84.319 A 1.233 1.233 0 0 0 112.192 84.191 Q 111.729 84.049 110.864 84.049 Z M 108.43 79.521 A 1.39 1.39 0 0 0 108.649 79.775 A 1.68 1.68 0 0 0 109.325 80.142 Q 109.582 80.216 109.89 80.232 A 3.346 3.346 0 0 0 110.066 80.237 A 2.831 2.831 0 0 0 110.807 80.148 Q 111.968 79.832 111.968 78.389 Q 111.968 76.855 110.755 76.538 A 2.826 2.826 0 0 0 110.042 76.456 Q 109.34 76.456 108.887 76.745 A 1.496 1.496 0 0 0 108.633 76.949 A 1.56 1.56 0 0 0 108.256 77.584 Q 108.176 77.83 108.151 78.13 A 3.418 3.418 0 0 0 108.14 78.413 Q 108.14 79.092 108.43 79.521 Z M 103.109 73.102 A 1.44 1.44 0 0 0 103.091 73.34 A 1.534 1.534 0 0 0 103.098 73.487 Q 103.11 73.618 103.146 73.725 A 0.671 0.671 0 0 0 103.31 73.994 A 0.729 0.729 0 0 0 103.574 74.162 A 0.825 0.825 0 0 0 103.858 74.209 A 0.758 0.758 0 0 0 104.398 73.994 Q 104.556 73.844 104.604 73.586 A 1.344 1.344 0 0 0 104.625 73.34 A 1.486 1.486 0 0 0 104.619 73.199 Q 104.607 73.071 104.571 72.966 A 0.656 0.656 0 0 0 104.398 72.69 A 0.766 0.766 0 0 0 103.858 72.479 A 0.992 0.992 0 0 0 103.792 72.481 A 0.751 0.751 0 0 0 103.31 72.686 Q 103.154 72.834 103.109 73.102 Z" id="right_labelLayer" stroke="#000000" fill="#000000" style="stroke:#000000;fill:#000000" vector-effect="non-scaling-stroke"/><path d="M 210.342 100.113 L 210.342 97.71 L 223.983 97.71 L 224.03 97.663 L 224.03 64.022 L 226.433 64.022 L 226.48 63.975 L 226.48 36.185 L 226.433 36.138 L 224.03 36.138 L 224.03 2.497 L 223.983 2.45 L 210.342 2.45 L 210.342 0.047 L 210.295 0 L 182.505 0 L 182.458 0.047 L 182.458 2.45 L 168.817 2.45 L 168.77 2.497 L 168.77 36.138 L 166.367 36.138 L 166.32 36.185 L 166.32 63.975 L 166.367 64.022 L 168.77 64.022 L 168.77 97.663 L 168.817 97.71 L 182.458 97.71 L 182.458 100.113 L 182.505 100.16 L 210.295 100.16 L 210.342 100.113 Z" id="bottom_outsideCutPath" stroke="#FF0000" stroke-width="0.1" style="stroke:#FF0000;stroke-width:0.1" vector-effect="non-scaling-stroke"/><path d="M 216.193 54.592 L 215.218 54.592 L 215.218 50.403 A 2.877 2.877 0 0 0 215.189 49.98 Q 215.12 49.519 214.889 49.249 A 1.026 1.026 0 0 0 214.412 48.94 Q 214.175 48.864 213.866 48.864 Q 213.228 48.864 212.823 49.121 A 1.291 1.291 0 0 0 212.521 49.387 A 1.612 1.612 0 0 0 212.248 49.881 Q 212.087 50.331 212.086 50.986 A 5.443 5.443 0 0 0 212.086 50.996 L 212.086 54.592 L 211.111 54.592 L 211.111 50.403 A 2.877 2.877 0 0 0 211.082 49.98 Q 211.013 49.519 210.782 49.249 Q 210.497 48.915 209.935 48.871 A 2.284 2.284 0 0 0 209.754 48.864 A 2.422 2.422 0 0 0 209.253 48.912 Q 208.944 48.978 208.714 49.131 A 1.278 1.278 0 0 0 208.411 49.413 A 1.635 1.635 0 0 0 208.169 49.874 Q 207.985 50.393 207.985 51.214 L 207.985 54.592 L 207.01 54.592 L 207.01 48.153 L 207.803 48.153 L 207.962 49.034 L 208.009 49.034 A 1.917 1.917 0 0 1 208.787 48.3 A 2.315 2.315 0 0 1 209.702 48.043 A 2.797 2.797 0 0 1 209.912 48.035 A 3.193 3.193 0 0 1 210.631 48.11 Q 211.073 48.212 211.382 48.454 A 1.665 1.665 0 0 1 211.886 49.128 L 211.933 49.128 A 2.036 2.036 0 0 1 212.7 48.367 A 2.447 2.447 0 0 1 212.768 48.329 A 2.468 2.468 0 0 1 213.673 48.054 A 3.078 3.078 0 0 1 214.013 48.035 A 3.39 3.39 0 0 1 214.628 48.087 Q 214.97 48.151 215.237 48.29 A 1.607 1.607 0 0 1 215.649 48.596 A 1.679 1.679 0 0 1 216.01 49.186 Q 216.107 49.446 216.153 49.77 A 4.473 4.473 0 0 1 216.193 50.391 L 216.193 54.592 Z M 177.582 53.763 L 177.512 53.763 L 177.306 54.592 L 176.607 54.592 L 176.607 45.45 L 177.582 45.45 L 177.582 47.671 A 20.333 20.333 0 0 1 177.571 48.358 Q 177.56 48.683 177.538 48.972 A 12.173 12.173 0 0 1 177.535 49.011 L 177.582 49.011 Q 178.264 48.047 179.603 48.047 A 2.981 2.981 0 0 1 180.442 48.159 A 2.231 2.231 0 0 1 181.574 48.914 A 2.874 2.874 0 0 1 182.078 49.884 Q 182.202 50.284 182.249 50.763 A 6.26 6.26 0 0 1 182.276 51.366 Q 182.276 52.953 181.569 53.831 A 2.309 2.309 0 0 1 179.928 54.694 A 3.308 3.308 0 0 1 179.603 54.709 A 2.958 2.958 0 0 1 178.86 54.619 A 2.574 2.574 0 0 1 178.455 54.477 Q 177.935 54.245 177.582 53.763 Z M 194.209 53.787 L 194.209 54.533 Q 194.05 54.609 193.742 54.659 Q 193.433 54.709 193.186 54.709 Q 191.696 54.709 191.395 53.457 A 3.065 3.065 0 0 1 191.318 52.741 L 191.318 48.911 L 190.396 48.911 L 190.396 48.441 L 191.318 48.035 L 191.729 46.661 L 192.293 46.661 L 192.293 48.153 L 194.162 48.153 L 194.162 48.911 L 192.293 48.911 L 192.293 52.7 A 1.964 1.964 0 0 0 192.322 53.045 Q 192.382 53.381 192.569 53.593 Q 192.846 53.904 193.327 53.904 A 3.203 3.203 0 0 0 193.797 53.871 A 2.95 2.95 0 0 0 193.827 53.866 A 5.276 5.276 0 0 0 193.968 53.842 Q 194.112 53.815 194.209 53.787 Z M 198.456 53.787 L 198.456 54.533 Q 198.298 54.609 197.989 54.659 Q 197.681 54.709 197.434 54.709 Q 195.944 54.709 195.642 53.457 A 3.065 3.065 0 0 1 195.566 52.741 L 195.566 48.911 L 194.643 48.911 L 194.643 48.441 L 195.566 48.035 L 195.977 46.661 L 196.541 46.661 L 196.541 48.153 L 198.409 48.153 L 198.409 48.911 L 196.541 48.911 L 196.541 52.7 A 1.964 1.964 0 0 0 196.569 53.045 Q 196.629 53.381 196.817 53.593 Q 197.093 53.904 197.575 53.904 A 3.203 3.203 0 0 0 198.044 53.871 A 2.95 2.95 0 0 0 198.074 53.866 A 5.276 5.276 0 0 0 198.215 53.842 Q 198.359 53.815 198.456 53.787 Z M 189.448 52.346 A 5.038 5.038 0 0 0 189.538 51.366 Q 189.538 49.833 188.742 48.934 Q 187.946 48.035 186.595 48.035 Q 185.196 48.035 184.409 48.914 A 2.694 2.694 0 0 0 184.078 49.373 Q 183.823 49.817 183.711 50.387 A 5.064 5.064 0 0 0 183.622 51.366 A 4.879 4.879 0 0 0 183.683 52.157 A 3.608 3.608 0 0 0 183.986 53.141 A 3.206 3.206 0 0 0 184.057 53.28 A 2.64 2.64 0 0 0 185.02 54.304 A 2.716 2.716 0 0 0 185.643 54.581 A 3.132 3.132 0 0 0 186.553 54.709 A 3.787 3.787 0 0 0 187.215 54.654 A 2.6 2.6 0 0 0 188.745 53.825 A 2.721 2.721 0 0 0 189.069 53.38 Q 189.333 52.928 189.448 52.346 Z M 205.211 52.346 A 5.038 5.038 0 0 0 205.301 51.366 Q 205.301 49.833 204.505 48.934 Q 203.708 48.035 202.357 48.035 Q 200.959 48.035 200.172 48.914 A 2.694 2.694 0 0 0 199.841 49.373 Q 199.586 49.817 199.473 50.387 A 5.064 5.064 0 0 0 199.384 51.366 A 4.879 4.879 0 0 0 199.446 52.157 A 3.608 3.608 0 0 0 199.749 53.141 A 3.206 3.206 0 0 0 199.82 53.28 A 2.64 2.64 0 0 0 200.783 54.304 A 2.716 2.716 0 0 0 201.406 54.581 A 3.132 3.132 0 0 0 202.316 54.709 A 3.787 3.787 0 0 0 202.977 54.654 A 2.6 2.6 0 0 0 204.507 53.825 A 2.721 2.721 0 0 0 204.831 53.38 Q 205.096 52.928 205.211 52.346 Z M 184.632 51.366 A 4.939 4.939 0 0 0 184.679 52.072 Q 184.785 52.8 185.126 53.246 A 1.598 1.598 0 0 0 186.167 53.86 A 2.422 2.422 0 0 0 186.577 53.893 A 2.265 2.265 0 0 0 187.175 53.818 A 1.576 1.576 0 0 0 188.031 53.249 Q 188.4 52.771 188.495 51.963 A 5.137 5.137 0 0 0 188.527 51.366 A 4.866 4.866 0 0 0 188.481 50.673 Q 188.43 50.32 188.323 50.034 A 2.008 2.008 0 0 0 188.031 49.501 A 1.604 1.604 0 0 0 187.034 48.906 A 2.46 2.46 0 0 0 186.565 48.864 A 2.321 2.321 0 0 0 185.987 48.931 A 1.553 1.553 0 0 0 185.12 49.492 Q 184.632 50.121 184.632 51.366 Z M 200.395 51.366 A 4.939 4.939 0 0 0 200.442 52.072 Q 200.547 52.8 200.888 53.246 A 1.598 1.598 0 0 0 201.929 53.86 A 2.422 2.422 0 0 0 202.34 53.893 A 2.265 2.265 0 0 0 202.937 53.818 A 1.576 1.576 0 0 0 203.794 53.249 Q 204.163 52.771 204.257 51.963 A 5.137 5.137 0 0 0 204.29 51.366 A 4.866 4.866 0 0 0 204.244 50.673 Q 204.193 50.32 204.086 50.034 A 2.008 2.008 0 0 0 203.794 49.501 A 1.604 1.604 0 0 0 202.796 48.906 A 2.46 2.46 0 0 0 202.328 48.864 A 2.321 2.321 0 0 0 201.75 48.931 A 1.553 1.553 0 0 0 200.883 49.492 Q 200.395 50.121 200.395 51.366 Z M 179.462 48.864 A 2.741 2.741 0 0 0 178.932 48.912 Q 178.629 48.971 178.4 49.106 A 1.297 1.297 0 0 0 178.023 49.437 Q 177.582 50.009 177.582 51.366 A 6.448 6.448 0 0 0 177.614 52.033 Q 177.703 52.879 178.035 53.308 A 1.415 1.415 0 0 0 178.752 53.793 Q 178.992 53.868 179.285 53.886 A 3.136 3.136 0 0 0 179.486 53.893 A 1.944 1.944 0 0 0 180.038 53.819 A 1.403 1.403 0 0 0 180.825 53.238 Q 181.14 52.77 181.23 52.009 A 5.588 5.588 0 0 0 181.266 51.355 A 5.762 5.762 0 0 0 181.231 50.698 Q 181.142 49.924 180.825 49.481 A 1.422 1.422 0 0 0 179.92 48.908 A 2.256 2.256 0 0 0 179.462 48.864 Z" id="bottom_labelLayer" stroke="#000000" fill="#000000" style="stroke:#000000;fill:#000000" vector-effect="non-scaling-stroke"/></g></svg>