<?xml version="1.0" encoding="utf-8"?>
<!-- Generator: Adobe Illustrator 25.4.1, SVG Export Plug-In . SVG Version: 6.00 Build 0)  -->
<svg version="1.1" id="レイヤー_1" xmlns="http://www.w3.org/2000/svg" xmlns:xlink="http://www.w3.org/1999/xlink" x="0px"
	 y="0px" viewBox="0 0 768.7 439.5" style="enable-background:new 0 0 768.7 439.5;" xml:space="preserve">
<style type="text/css">
	.st0{fill:none;stroke:#FF0000;stroke-width:1.000000e-03;stroke-linecap:round;stroke-miterlimit:11.3386;}
	.st1{font-family:'KozGoPr6N-Regular-90ms-RKSJ-H';}
	.st2{font-size:48px;}
</style>
<path id="front_outsideCutPath" vector-effect="non-scaling-stroke" class="st0" d="M36.8,439.4v-6.8H64v6.8l0.1,0.1H92l0.1-0.1
	v-6.8h27.2v6.8l0.1,0.1h36.5l0.1-0.1V407l-0.1-0.1h-6.8v-27.2h6.8l0.1-0.1v-32.4l-0.1-0.1H0.1L0,347.2v32.4l0.1,0.1h6.8v27.2H0.1
	L0,407v32.4l0.1,0.1h36.5L36.8,439.4z"/>
<path id="left_outsideCutPath" vector-effect="non-scaling-stroke" class="st0" d="M204.9,439.4v-6.8h27.2v6.8l0.1,0.1h27.8l0.1-0.1
	v-6.8h27.2v6.8l0.1,0.1h27.8l0.1-0.1v-6.8h27.2v6.8l0.1,0.1h27.8l0.1-0.1v-6.8h27.2v6.8l0.1,0.1h27.8l0.1-0.1v-6.8h27.2v6.8l0.1,0.1
	h27.8l0.1-0.1v-6.8h27.2v6.8l0.1,0.1h27.8l0.1-0.1v-6.8h27.2v6.8l0.1,0.1H597l0.1-0.1v-32h6.8l0.1-0.1v-27.8l-0.1-0.1h-6.8v-32
	l-0.1-0.1H171.7l-0.1,0.1v32h-6.8l-0.1,0.1v27.8l0.1,0.1h6.8v32l0.1,0.1h33.1L204.9,439.4z"/>
<path id="back_outsideCutPath" vector-effect="non-scaling-stroke" class="st0" d="M36.8,338.5v-6.8H64v6.8l0.1,0.1H92l0.1-0.1v-6.8
	h27.2v6.8l0.1,0.1h36.5l0.1-0.1v-32.4l-0.1-0.1h-6.8v-27.2h6.8l0.1-0.1v-32.4l-0.1-0.1H0.1L0,246.3v32.4l0.1,0.1h6.8V306H0.1
	L0,306.1v32.4l0.1,0.1h36.5L36.8,338.5z"/>
<path id="right_outsideCutPath" vector-effect="non-scaling-stroke" class="st0" d="M204.9,338.5v-6.8h27.2v6.8l0.1,0.1h27.8
	l0.1-0.1v-6.8h27.2v6.8l0.1,0.1h27.8l0.1-0.1v-6.8h27.2v6.8l0.1,0.1h27.8l0.1-0.1v-6.8h27.2v6.8l0.1,0.1h27.8l0.1-0.1v-6.8h27.2v6.8
	l0.1,0.1h27.8l0.1-0.1v-6.8h27.2v6.8l0.1,0.1h27.8l0.1-0.1v-6.8h27.2v6.8l0.1,0.1H597l0.1-0.1v-32h6.8l0.1-0.1v-27.8l-0.1-0.1h-6.8
	v-32l-0.1-0.1H171.7l-0.1,0.1v32h-6.8l-0.1,0.1v27.8l0.1,0.1h6.8v32l0.1,0.1h33.1L204.9,338.5z"/>
<path id="bottom_outsideCutPath" vector-effect="non-scaling-stroke" class="st0" d="M677.1,439.4v-6.8h27.2v6.8l0.1,0.1h27.8
	l0.1-0.1v-6.8h29.3l0.1-0.1v-32.8h6.8l0.1-0.1v-27.8l-0.1-0.1h-6.8v-27.2h6.8l0.1-0.1v-27.8l-0.1-0.1h-6.8v-27.2h6.8l0.1-0.1v-27.8
	l-0.1-0.1h-6.8v-27.2h6.8l0.1-0.1v-27.8l-0.1-0.1h-6.8v-27.2h6.8l0.1-0.1v-27.8l-0.1-0.1h-6.8v-27.2h6.8l0.1-0.1V95.3l-0.1-0.1h-6.8
	V68h6.8l0.1-0.1V40l-0.1-0.1h-6.8V7.1l-0.1-0.1h-29.3V0.1L732.2,0h-27.8l-0.1,0.1v6.8h-27.2V0.1L676.9,0h-27.8L649,0.1v6.8h-29.3
	l-0.1,0.1v32.8h-6.8l-0.1,0.1v27.8l0.1,0.1h6.8v27.2h-6.8l-0.1,0.1v27.8l0.1,0.1h6.8v27.2h-6.8l-0.1,0.1v27.8l0.1,0.1h6.8v27.2h-6.8
	l-0.1,0.1v27.8l0.1,0.1h6.8V261h-6.8l-0.1,0.1V289l0.1,0.1h6.8v27.2h-6.8l-0.1,0.1v27.8l0.1,0.1h6.8v27.2h-6.8l-0.1,0.1v27.8
	l0.1,0.1h6.8v32.8l0.1,0.1H649v6.8l0.1,0.1h27.8L677.1,439.4z"/>
<text transform="matrix(1 0 0 1 259.9275 301.0356)" class="st1 st2">Wheel Here</text>
<text transform="matrix(1 0 0 1 260.7434 409.2558)" class="st1 st2">Wheel Here</text>
<text transform="matrix(1 0 0 1 672.8345 163.2318)"><tspan x="0" y="0" class="st1 st2">車</tspan><tspan x="0" y="57.6" class="st1 st2">輪</tspan><tspan x="0" y="115.2" class="st1 st2">こ</tspan><tspan x="0" y="172.8" class="st1 st2">こ</tspan></text>
</svg>
